<svg width="1093" height="168" viewBox="0 0 1093 168" fill="none" xmlns="http://www.w3.org/2000/svg">
<path fill-rule="evenodd" clip-rule="evenodd" d="M932.469 164.127V3.36914H1010.11C1024.57 3.36914 1037.41 5.72857 1048.43 10.6907C1059.58 15.6479 1068.41 22.8959 1074.65 32.4897C1080.93 42.0057 1083.95 53.1428 1083.95 65.6168C1083.95 78.1006 1080.93 89.2453 1074.64 98.7662L1074.61 98.8096C1070.48 104.946 1065.24 110.083 1058.96 114.244L1093 164.127H1023.89L998.863 127.021H995.402V164.127H932.469ZM988.813 120.433H1002.37L1027.4 157.539H1080.52L1049.53 112.119C1051.54 111.098 1053.44 109.992 1055.24 108.802C1060.89 105.073 1065.52 100.517 1069.14 95.1331C1074.62 86.8404 1077.36 77.0017 1077.36 65.6168C1077.36 54.232 1074.62 44.3932 1069.14 36.1006C1063.66 27.6674 1055.86 21.2019 1045.74 16.7042C1035.76 12.2065 1023.88 9.95759 1010.11 9.95759H939.057V157.539H988.813V120.433ZM988.813 48.3287V82.9049H1006.94C1013.83 82.9049 1018.89 81.3588 1022.12 78.2667C1025.5 75.1745 1027.18 70.9579 1027.18 65.6168C1027.18 60.2758 1025.5 56.0592 1022.12 52.967C1018.89 49.8748 1013.83 48.3287 1006.94 48.3287H988.813ZM995.402 76.3165H1006.94C1013.02 76.3165 1016.08 74.9282 1017.57 73.5056L1017.62 73.4572L1017.67 73.41C1019.45 71.7771 1020.6 69.4491 1020.6 65.6168C1020.6 61.7846 1019.45 59.4565 1017.67 57.8237L1017.62 57.7765L1017.57 57.7281C1016.08 56.3055 1013.02 54.9172 1006.94 54.9172H995.402V76.3165Z" fill="#DADADA"/>
<path fill-rule="evenodd" clip-rule="evenodd" d="M825.032 64.7735H887.438V100.615H825.032V120.011H898.823V157.539H776.12V9.95759H896.082V47.4854H825.032V64.7735ZM831.621 54.0739H902.671V3.36914H769.531V164.127H905.411V113.423H831.621V107.203H894.027V58.1851H831.621V54.0739Z" fill="#DADADA"/>
<path fill-rule="evenodd" clip-rule="evenodd" d="M674.717 3.36914H737.65V164.127H674.717V109.733H641.933V164.127H579V3.36914H641.933V55.6551H674.717V3.36914ZM681.305 62.2436H635.344V9.95759H585.588V157.539H635.344V103.145H681.305V157.539H731.061V9.95759H681.305V62.2436Z" fill="#DADADA"/>
<path fill-rule="evenodd" clip-rule="evenodd" d="M452.017 164.127V55.128H408.797V3.36914H558.17V55.128H514.95V164.127H452.017ZM508.362 48.5396H551.582V9.95759H415.385V48.5396H458.606V157.539H508.362V48.5396Z" fill="#DADADA"/>
<path fill-rule="evenodd" clip-rule="evenodd" d="M270.606 161.403L270.578 161.393C259.712 157.318 250.181 151.542 242.065 144.039L242.016 143.993C233.931 136.366 227.593 127.428 223.025 117.226L222.992 117.151C218.529 106.842 216.336 95.6817 216.336 83.7524C216.336 71.6962 218.525 60.5201 223.007 50.3208L223.025 50.2786C227.594 40.0744 233.938 31.1964 242.04 23.6998C250.156 16.0493 259.695 10.1931 270.578 6.11191L270.606 6.10148C281.662 2.01214 293.547 0 306.202 0C318.987 0 330.885 2.00869 341.827 6.11192C352.71 10.1931 362.248 16.0493 370.365 23.6998C378.469 31.1986 384.748 40.0836 389.178 50.299C393.806 60.5022 396.069 71.6871 396.069 83.7524C396.069 95.6983 393.798 106.873 389.185 117.19C384.755 127.41 378.48 136.36 370.389 143.993L370.34 144.039C362.224 151.542 352.693 157.318 341.827 161.393C330.893 165.493 319.067 167.505 306.413 167.505C293.627 167.505 281.671 165.496 270.606 161.403ZM383.156 114.534C387.372 105.117 389.48 94.8561 389.48 83.7524C389.48 72.5081 387.372 62.2477 383.156 52.9712C379.079 43.5541 373.317 35.4019 365.867 28.5148C358.418 21.4871 349.633 16.0758 339.514 12.2809C329.394 8.48593 318.29 6.58845 306.202 6.58845C294.255 6.58845 283.152 8.48593 272.891 12.2809C262.771 16.0758 253.987 21.4871 246.537 28.5148C239.088 35.4019 233.255 43.5541 229.038 52.9712C224.962 62.2477 222.924 72.5081 222.924 83.7524C222.924 94.8561 224.962 105.117 229.038 114.534C233.255 123.951 239.088 132.173 246.537 139.201C253.987 146.088 262.771 151.429 272.891 155.224C283.152 159.019 294.326 160.916 306.413 160.916C318.36 160.916 329.394 159.019 339.514 155.224C349.633 151.429 358.418 146.088 365.867 139.201C373.317 132.173 379.079 123.951 383.156 114.534Z" fill="#DADADA"/>
<path fill-rule="evenodd" clip-rule="evenodd" d="M0 164.127V3.36914H51.1796L95.5322 75.7588L138.618 3.36914H189.834L190.293 164.127H131.804L131.537 113.994L109.638 150.845H80.2955L58.5055 115.689V164.127H0ZM51.917 92.5531L83.9632 144.257H105.89L137.999 90.2223L138.358 157.539H183.686L183.264 9.95759H142.363L95.6139 88.5034L47.4896 9.95759H6.58845V157.539H51.917V92.5531Z" fill="#DADADA"/>
</svg>
